<?xml version="1.0" encoding="UTF-8" standalone="no"?>
<svg
   xmlns:dc="http://purl.org/dc/elements/1.1/"
   xmlns:cc="http://creativecommons.org/ns#"
   xmlns:rdf="http://www.w3.org/1999/02/22-rdf-syntax-ns#"
   xmlns:svg="http://www.w3.org/2000/svg"
   xmlns="http://www.w3.org/2000/svg"
   xmlns:sodipodi="http://sodipodi.sourceforge.net/DTD/sodipodi-0.dtd"
   xmlns:inkscape="http://www.inkscape.org/namespaces/inkscape"
   version="1.1"
   x="0px"
   y="0px"
   viewBox="0 0 30 30"
   id="svg2"
   inkscape:version="0.91 r13725"
   sodipodi:docname="accounting-apps.svg"
   width="30"
   height="30">
  <metadata
     id="metadata16">
    <rdf:RDF>
      <cc:Work
         rdf:about="">
        <dc:format>image/svg+xml</dc:format>
        <dc:type
           rdf:resource="http://purl.org/dc/dcmitype/StillImage" />
        <dc:title></dc:title>
      </cc:Work>
    </rdf:RDF>
  </metadata>
  <defs
     id="defs14" />
  <sodipodi:namedview
     pagecolor="#ffffff"
     bordercolor="#666666"
     borderopacity="1"
     objecttolerance="10"
     gridtolerance="10"
     guidetolerance="10"
     inkscape:pageopacity="0"
     inkscape:pageshadow="2"
     inkscape:window-width="1920"
     inkscape:window-height="1016"
     id="namedview12"
     showgrid="false"
     inkscape:zoom="10.680141"
     inkscape:cx="25.353964"
     inkscape:cy="24.583995"
     inkscape:window-x="0"
     inkscape:window-y="27"
     inkscape:window-maximized="1"
     inkscape:current-layer="svg2" />
  <g
     transform="matrix(0.35714286,0,0,0.35714286,-2.8571428,-342.98651)"
     id="g4">
    <path
       style="color:#000000;display:inline;overflow:visible;visibility:visible;fill:#000000;stroke:none;marker:none;enable-background:accumulate"
       d="m 36,964.36237 c -14.98072,0 -27.21882,5.88407 -27.9687501,13.28125 0.41912,4.14188 4.8077901,7.01899 7.6562501,8.49998 5.06307,2.5625 12.30205,4.25 20.3125,4.25 2.26158,0 4.45948,-0.1533 6.5625,-0.4062 5.21029,-4.99248 12.15473,-8.20402 19.84375,-8.59378 0.75802,-1.19292 1.42865,-2.46967 1.5625,-3.6875 C 62.4512,966.82916 43.55615,964.32545 36,964.36237 Z m 28,20 c -15.46397,0 -28,12.53603 -28,28.00003 0,15.464 12.53603,28 28,28 15.46397,0 28,-12.536 28,-28 0,-15.464 -12.53603,-28.00003 -28,-28.00003 z m -55.9687501,1.28125 0,4.09378 c 0.30687,2.9454 2.9096201,5.9726 7.6562501,8.375 4.77659,2.4175 11.49815,4.041 18.96875,4.2187 0.98893,-2.893 2.40691,-5.5951 4.15625,-8.0312 -0.92719,0.045 -1.86245,0.062 -2.8125,0.062 -8.55809,0 -16.3302,-1.7234 -22.125,-4.6563 -2.26171,-1.1447 -4.24507,-2.5207 -5.8437501,-4.06248 z M 65.03125,995.3624 c 5.4481,0 9.20556,2.393 12.375,5.5625 0.76833,0.7307 0.77688,2.0898 0.0312,2.8437 -0.74563,0.7539 -2.10457,0.7603 -2.84375,0 -2.83051,-2.8305 -5.20175,-4.4062 -9.56245,-4.4062 -5.43545,0 -10.07242,3.2967 -12.03125,8 l 13,0 c 1.05663,-0.015 2.03125,0.9432 2.03125,2 0,1.0567 -0.97462,2.0149 -2.03125,2 l -13.96875,0 c -0.0242,0.3282 -0.0312,0.6652 -0.0312,1 0,0.6806 0.0561,1.3482 0.15625,2 l 13.8437,0 c 1.05663,-0.015 2.03125,0.9433 2.03125,2 0,1.0567 -0.97462,2.0149 -2.03125,2 l -12.53125,0 c 2.16728,4.1669 6.51838,7 11.5625,7 4.36067,0 6.73192,-1.6069 9.5625,-4.4375 0.73918,-0.7603 2.09812,-0.7539 2.84375,0 0.74566,0.7539 0.73711,2.113 -0.0312,2.8437 -3.16942,3.1695 -6.92687,5.5938 -12.375,5.5938 -7.25738,0 -13.46372,-4.5867 -15.90625,-11 l -3.12505,0 c -1.04732,0.049 -2.04465,-0.8589 -2.09375,-1.9063 -0.0491,-1.0473 0.85891,-2.0448 1.90625,-2.0937 0.74618,0 1.55097,-10e-5 2.3125,0 -0.077,-0.6533 -0.125,-1.3266 -0.125,-2 0,-0.3347 0.0432,-0.6701 0.0625,-1 l -2.0625,0 c -1.04732,0.049 -2.04465,-0.859 -2.09375,-1.9063 -0.0491,-1.0473 0.85891,-2.0448 1.90625,-2.0937 0.95389,0 1.96807,-10e-5 2.9375,0 2.14348,-6.9465 8.64187,-12 16.28125,-12 z m -57.0000001,2.2812 0,4.0938 c 0.30687,2.9453 2.9096201,5.9726 7.6562501,8.375 4.43684,2.2455 10.54138,3.8326 17.375,4.1875 -0.0398,-0.6428 -0.0625,-1.2847 -0.0625,-1.9375 0,-2.0748 0.20503,-4.1019 0.59375,-6.0625 -7.59733,-0.2978 -14.47612,-1.9717 -19.71875,-4.625 -2.26171,-1.1447 -4.24507,-2.4895 -5.8437501,-4.0313 z m 0,12 0,4.0938 c 0.30687,2.9454 2.9096201,5.9726 7.6562501,8.375 7.02772,3.4395 14.33766,4.2024 20.65625,4.25 -1.2731,-2.5106 -2.2292,-5.2163 -2.78125,-8.0625 -7.58493,-0.3012 -14.45204,-1.9753 -19.6875,-4.625 -2.26171,-1.1447 -4.24507,-2.4895 -5.8437501,-4.0313 z m -0.0312,12 0,4.7188 c 0,7.732 12.5406101,14 28.0000001,14 4.35524,0 8.45141,-0.5186 12.125,-1.4063 -3.7143,-2.2224 -6.94323,-5.1666 -9.4375,-8.6875 -0.88661,0.042 -1.77718,0.094 -2.68755,0.094 -8.5581,0 -16.3302,-1.7547 -22.125,-4.6875 -2.26925,-1.1485 -4.27368,-2.4831 -5.8750001,-4.0313 z"
       visibility="visible"
       display="inline"
       overflow="visible"
       id="path6"
       inkscape:connector-curvature="0" />
  </g>
</svg>
