<?xml version="1.0" encoding="UTF-8" standalone="no"?>
<!-- Created with Inkscape (http://www.inkscape.org/) -->

<svg
   xmlns:dc="http://purl.org/dc/elements/1.1/"
   xmlns:cc="http://creativecommons.org/ns#"
   xmlns:rdf="http://www.w3.org/1999/02/22-rdf-syntax-ns#"
   xmlns:svg="http://www.w3.org/2000/svg"
   xmlns="http://www.w3.org/2000/svg"
   xmlns:sodipodi="http://sodipodi.sourceforge.net/DTD/sodipodi-0.dtd"
   xmlns:inkscape="http://www.inkscape.org/namespaces/inkscape"
   width="27"
   height="27"
   viewBox="0 0 27 27.000001"
   id="svg4276"
   version="1.1"
   inkscape:version="0.91 r13725"
   sodipodi:docname="apps-icon.svg">
  <defs
     id="defs4278" />
  <sodipodi:namedview
     id="base"
     pagecolor="#ffffff"
     bordercolor="#666666"
     borderopacity="1.0"
     inkscape:pageopacity="0.0"
     inkscape:pageshadow="2"
     inkscape:zoom="0.7"
     inkscape:cx="348.45482"
     inkscape:cy="304.48044"
     inkscape:document-units="px"
     inkscape:current-layer="layer1"
     showgrid="false"
     units="px"
     inkscape:window-width="1920"
     inkscape:window-height="1016"
     inkscape:window-x="0"
     inkscape:window-y="27"
     inkscape:window-maximized="1" />
  <metadata
     id="metadata4281">
    <rdf:RDF>
      <cc:Work
         rdf:about="">
        <dc:format>image/svg+xml</dc:format>
        <dc:type
           rdf:resource="http://purl.org/dc/dcmitype/StillImage" />
        <dc:title></dc:title>
      </cc:Work>
    </rdf:RDF>
  </metadata>
  <g
     inkscape:label="Calque 1"
     inkscape:groupmode="layer"
     id="layer1"
     transform="translate(0,-1025.3622)">
    <path
       style="opacity:1;fill:#ffffff;fill-opacity:1;stroke:#0b5d88;stroke-width:0.01179901;stroke-miterlimit:4;stroke-dasharray:none;stroke-opacity:1"
       d="m 0.0058995,1025.3681 0,7.3784 7.3783427,0 0,-7.3784 -7.3783427,0 z m 9.8048954,0 0,7.3784 7.3783431,0 0,-7.3784 -7.3783431,0 z m 9.8048951,0 0,7.3784 7.37841,0 0,-7.3784 -7.37841,0 z m -19.6097905,9.805 0,7.3783 7.3783427,0 0,-7.3783 -7.3783427,0 z m 9.8048954,0 0,7.3783 7.3783431,0 0,-7.3783 -7.3783431,0 z m 9.8048951,0 0,7.3783 7.37841,0 0,-7.3783 -7.37841,0 z m -19.6097905,9.8048 0,7.3784 7.3783427,0 0,-7.3784 -7.3783427,0 z m 9.8048954,0 0,7.3784 7.3783431,0 0,-7.3784 -7.3783431,0 z m 9.8048951,0 0,7.3784 7.37841,0 0,-7.3784 -7.37841,0 z"
       id="rect4824"
       inkscape:connector-curvature="0" />
  </g>
</svg>
