<?xml version="1.0" encoding="UTF-8" standalone="no"?>
<!-- Created with Inkscape (http://www.inkscape.org/) -->

<svg
   xmlns:dc="http://purl.org/dc/elements/1.1/"
   xmlns:cc="http://creativecommons.org/ns#"
   xmlns:rdf="http://www.w3.org/1999/02/22-rdf-syntax-ns#"
   xmlns:svg="http://www.w3.org/2000/svg"
   xmlns="http://www.w3.org/2000/svg"
   xmlns:sodipodi="http://sodipodi.sourceforge.net/DTD/sodipodi-0.dtd"
   xmlns:inkscape="http://www.inkscape.org/namespaces/inkscape"
   width="27"
   height="27"
   viewBox="0 0 27 27.000001"
   id="svg4276"
   version="1.1"
   inkscape:version="0.91 r13725"
   sodipodi:docname="apps-icon.svg">
  <defs
     id="defs4278" />
  <sodipodi:namedview
     id="base"
     pagecolor="#ffffff"
     bordercolor="#666666"
     borderopacity="1.0"
     inkscape:pageopacity="0.0"
     inkscape:pageshadow="2"
     inkscape:zoom="2.8"
     inkscape:cx="-11.952868"
     inkscape:cy="107.88018"
     inkscape:document-units="px"
     inkscape:current-layer="layer1"
     showgrid="false"
     units="px"
     inkscape:window-width="1920"
     inkscape:window-height="1016"
     inkscape:window-x="1920"
     inkscape:window-y="27"
     inkscape:window-maximized="1" />
  <metadata
     id="metadata4281">
    <rdf:RDF>
      <cc:Work
         rdf:about="">
        <dc:format>image/svg+xml</dc:format>
        <dc:type
           rdf:resource="http://purl.org/dc/dcmitype/StillImage" />
        <dc:title />
      </cc:Work>
    </rdf:RDF>
  </metadata>
  <g
     inkscape:label="Calque 1"
     inkscape:groupmode="layer"
     id="layer1"
     transform="translate(0,-1025.3622)">
    <path
       style="opacity:1;fill:#ffffff;fill-opacity:1;stroke:none;stroke-width:1.05999994;stroke-miterlimit:4;stroke-dasharray:none;stroke-opacity:1"
       d="m -9.5367437e-7,1025.3622 0,7.4629 7.46289095367437,0 0,-7.4629 -7.46289095367437,0 z m 9.76953085367437,0 0,7.4629 7.4628911,0 0,-7.4629 -7.4628911,0 z m 9.7675781,0 0,7.4629 7.462891,0 0,-7.4629 -7.462891,0 z m -19.53710895367437,9.7695 0,7.4629 7.46289095367437,0 0,-7.4629 -7.46289095367437,0 z m 9.76953085367437,0 0,7.4629 7.4628911,0 0,-7.4629 -7.4628911,0 z m 9.7675781,0 0,7.4629 7.462891,0 0,-7.4629 -7.462891,0 z m -19.53710895367437,9.7696 0,7.4609 7.46289095367437,0 0,-7.4609 -7.46289095367437,0 z m 9.76953085367437,0 0,7.4609 7.4628911,0 0,-7.4609 -7.4628911,0 z m 9.7675781,0 0,7.4609 7.462891,0 0,-7.4609 -7.462891,0 z"
       id="rect4242"
       inkscape:connector-curvature="0" />
  </g>
</svg>
