<?xml version="1.0" encoding="UTF-8" standalone="no"?>
<svg
   xmlns:dc="http://purl.org/dc/elements/1.1/"
   xmlns:cc="http://creativecommons.org/ns#"
   xmlns:rdf="http://www.w3.org/1999/02/22-rdf-syntax-ns#"
   xmlns:svg="http://www.w3.org/2000/svg"
   xmlns="http://www.w3.org/2000/svg"
   xmlns:sodipodi="http://sodipodi.sourceforge.net/DTD/sodipodi-0.dtd"
   xmlns:inkscape="http://www.inkscape.org/namespaces/inkscape"
   version="1.1"
   x="0px"
   y="0px"
   viewBox="0 0 30 30"
   id="svg2"
   inkscape:version="0.91 r13725"
   sodipodi:docname="facility-apps.svg"
   width="30"
   height="30">
  <metadata
     id="metadata16">
    <rdf:RDF>
      <cc:Work
         rdf:about="">
        <dc:format>image/svg+xml</dc:format>
        <dc:type
           rdf:resource="http://purl.org/dc/dcmitype/StillImage" />
        <dc:title></dc:title>
      </cc:Work>
    </rdf:RDF>
  </metadata>
  <defs
     id="defs14" />
  <sodipodi:namedview
     pagecolor="#ffffff"
     bordercolor="#666666"
     borderopacity="1"
     objecttolerance="10"
     gridtolerance="10"
     guidetolerance="10"
     inkscape:pageopacity="0"
     inkscape:pageshadow="2"
     inkscape:window-width="1920"
     inkscape:window-height="1016"
     id="namedview12"
     showgrid="false"
     inkscape:zoom="2.6700352"
     inkscape:cx="63.351211"
     inkscape:cy="19.354582"
     inkscape:window-x="0"
     inkscape:window-y="27"
     inkscape:window-maximized="1"
     inkscape:current-layer="svg2" />
  <g
     transform="matrix(0.28659865,0,0,0.28659713,0.43505675,1.8263557)"
     id="g4">
    <path
       inkscape:connector-curvature="0"
       d="M 103.158,76.637 97.945,73.444 74.324,69.274 C 68.772,68.104 68.99,63.276 68.99,61.473 l -0.039,0 0,-63.17 -7.363,0 0,46.37 L 59.106,8.289 C 59.06,5.407 56.808,3.079 54.047,3.079 l -39.505,0 c -2.761,0 -5.014,2.33 -5.061,5.21 l -2.304,33.795 -6.768,0 c -1.041,0 -1.885,1.324 -1.885,2.956 0,0 -0.042,37.104 -0.042,37.868 0,8.491 6.904,15.396 15.394,15.396 8.162,0 14.856,-6.386 15.359,-14.424 l 15.98,0 c 0.503,8.037 7.2,14.422 15.361,14.422 8.489,0 15.396,-6.904 15.396,-15.395 0,-2.232 -0.485,-4.356 -1.343,-6.273 l 28.528,0 0,0.003 z M 19.274,83.88 c -0.46,2.563 -2.703,4.517 -5.397,4.517 -2.761,0 -5.043,-2.05 -5.426,-4.702 -0.038,-0.258 -0.065,-0.52 -0.065,-0.787 0,-0.111 0.009,-0.219 0.017,-0.332 0.078,-1.305 0.613,-2.484 1.446,-3.387 1.003,-1.085 2.434,-1.771 4.027,-1.771 1.592,0 3.022,0.686 4.026,1.771 0.834,0.902 1.369,2.082 1.446,3.387 0.006,0.113 0.017,0.221 0.017,0.332 0.001,0.333 -0.033,0.654 -0.091,0.972 z m 16.329,-33.526 -17.849,-8.269 -5.874,0 2.287,-33.545 0.006,-0.159 c 0,-0.366 0.223,-0.611 0.369,-0.611 l 39.503,0 c 0.146,0 0.367,0.245 0.367,0.611 l 0,0.08 2.692,39.486 -6.47,-5.418 3.14,-3.75 c 0.715,-0.85 0.602,-2.119 -0.248,-2.83 -0.851,-0.715 -2.121,-0.602 -2.832,0.249 l -8.085,9.655 c -0.713,0.85 -0.6,2.118 0.249,2.83 0.852,0.713 2.12,0.603 2.831,-0.25 l 3.141,-3.75 6.783,5.682 -20.01,-0.011 z M 60.576,88.4 c -2.696,0 -4.938,-1.957 -5.399,-4.521 -0.056,-0.315 -0.089,-0.638 -0.089,-0.972 0,-0.11 0.009,-0.22 0.015,-0.331 0.08,-1.305 0.613,-2.484 1.448,-3.388 0.688,-0.744 1.576,-1.295 2.58,-1.569 0.463,-0.13 0.944,-0.2 1.445,-0.2 0.408,0 0.803,0.046 1.183,0.132 0.789,0.173 1.515,0.52 2.137,0.995 0.462,0.354 0.872,0.775 1.203,1.254 0.544,0.792 0.883,1.73 0.95,2.739 0.01,0.123 0.019,0.245 0.019,0.368 -0.004,3.029 -2.464,5.493 -5.492,5.493 z"
       id="path6" />
  </g>
</svg>
