<?xml version="1.0" encoding="UTF-8" standalone="no"?>
<!-- Generator: Adobe Illustrator 15.0.0, SVG Export Plug-In . SVG Version: 6.00 Build 0)  -->

<svg
   xmlns:dc="http://purl.org/dc/elements/1.1/"
   xmlns:cc="http://creativecommons.org/ns#"
   xmlns:rdf="http://www.w3.org/1999/02/22-rdf-syntax-ns#"
   xmlns:svg="http://www.w3.org/2000/svg"
   xmlns="http://www.w3.org/2000/svg"
   xmlns:sodipodi="http://sodipodi.sourceforge.net/DTD/sodipodi-0.dtd"
   xmlns:inkscape="http://www.inkscape.org/namespaces/inkscape"
   version="1.1"
   id="Calque_1"
   x="0px"
   y="0px"
   width="32"
   height="32"
   viewBox="0 0 31.999999 31.999999"
   enable-background="new 0 0 841.89 1190.55"
   xml:space="preserve"
   inkscape:version="0.91 r13725"
   sodipodi:docname="logo-nereide.svg"><metadata
     id="metadata23"><rdf:RDF><cc:Work
         rdf:about=""><dc:format>image/svg+xml</dc:format><dc:type
           rdf:resource="http://purl.org/dc/dcmitype/StillImage" /><dc:title></dc:title></cc:Work></rdf:RDF></metadata><defs
     id="defs21" /><sodipodi:namedview
     pagecolor="#ffffff"
     bordercolor="#666666"
     borderopacity="1"
     objecttolerance="10"
     gridtolerance="10"
     guidetolerance="10"
     inkscape:pageopacity="0"
     inkscape:pageshadow="2"
     inkscape:window-width="1920"
     inkscape:window-height="1016"
     id="namedview19"
     showgrid="false"
     inkscape:zoom="12.686573"
     inkscape:cx="15.22385"
     inkscape:cy="21.250985"
     inkscape:window-x="0"
     inkscape:window-y="27"
     inkscape:window-maximized="1"
     inkscape:current-layer="Calque_1" /><rect
     x="17.364"
     y="-1066.411"
     width="806.55103"
     height="938.16998"
     id="rect3"
     style="fill:none" /><g
     id="g5"
     transform="matrix(0.0437377,0,0,0.0437377,-2.4398693,-8.5352372)"
     style="fill:#ffffff"><path
       d="m 475.336,357.013 c 4.605,3.485 8.896,7.303 12.645,11.506 8.436,9.444 14.181,20.754 14.86,34.207 12.983,-1.456 38.203,-7.924 37.266,-19.438 -0.113,-1.409 -0.839,-3.187 -2.102,-5.148 l -0.271,-0.44 c -12.503,-18.515 -60.802,-40.64 -78.387,-43.26 0,0 -39.785,-7.665 -56.192,-7.902 6.978,1.438 45.139,9.999 72.181,30.475 z"
       id="path7"
       inkscape:connector-curvature="0"
       style="fill:#ffffff" /><path
       d="m 165.387,557.855 -13.457,4.833 c -0.139,0.056 -5.244,2.119 -6.373,7.968 -1.207,6.258 1.24,20.963 31.201,49.159 33.356,31.392 160.375,76.985 283.479,76.985 0.016,0 0.02,0 0.037,0 11.938,0 24.515,-0.435 37.463,-1.473 C 366.246,627.641 182.18,563.761 173.808,560.574 c -3.165,-1.202 -5.947,-2.075 -8.421,-2.719 z"
       id="path9"
       inkscape:connector-curvature="0"
       style="fill:#ffffff" /><path
       d="m 664.773,499.557 c -0.182,-0.181 -0.372,-0.363 -0.556,-0.542 -11.48,24.638 -33.478,45.527 -64.513,60.955 -35.335,17.563 -79.693,26.846 -128.275,26.846 -37.145,0 -74.717,-5.409 -111.678,-16.077 -78.893,-22.771 -130.969,-52.168 -158.228,-89.445 6.967,15.861 21.347,37.995 51.004,59.726 l -24.672,35.357 98.841,2.818 c 1.588,0.577 3.181,1.152 4.808,1.719 139.308,48.583 194.117,59.946 238.217,101.939 53.035,-14.849 105.131,-43.898 141.356,-97.834 l 3.417,-5.086 c -2.307,-9.634 -6.686,-21.917 -12.593,-33.303 l 17.596,-65.366 -54.724,18.293 z"
       id="path11"
       inkscape:connector-curvature="0"
       style="fill:#ffffff" /><path
       d="m 495.422,868.736 c 57.373,-5.722 95.95,-19.15 112.995,-39.68 7.699,-9.271 11.111,-19.916 10.366,-32.338 -38.129,17.262 -86.087,26.02 -142.834,26.02 -25.834,0 -50.253,-0.653 -73.061,-1.936 55.13,19.96 81.034,36.012 92.534,47.934 z"
       id="path13"
       inkscape:connector-curvature="0"
       style="fill:#ffffff" /><path
       d="m 147.634,388.42 c 18.103,11.774 39.919,16.374 56.04,18.125 l -0.298,0.474 c -7.934,1.968 -48.836,10.7 -72.307,-11.631 0,0 14.233,57.475 61.895,50.27 0.324,7.617 1.918,12.491 2.048,12.89 21.571,46.274 78.733,81.056 166.423,106.365 2.124,0.613 4.253,1.207 6.379,1.783 0.728,0.2 1.457,0.382 2.188,0.574 1.396,0.374 2.798,0.745 4.195,1.101 0.853,0.216 1.705,0.42 2.555,0.633 1.276,0.315 2.551,0.632 3.824,0.934 0.904,0.214 1.812,0.415 2.718,0.626 1.217,0.28 2.435,0.563 3.652,0.83 0.934,0.206 1.867,0.399 2.804,0.598 1.185,0.255 2.371,0.508 3.556,0.749 0.953,0.195 1.907,0.38 2.86,0.565 1.163,0.229 2.323,0.458 3.483,0.674 0.968,0.182 1.936,0.352 2.903,0.526 1.141,0.206 2.283,0.411 3.424,0.604 0.977,0.168 1.954,0.327 2.929,0.487 1.133,0.182 2.266,0.365 3.393,0.541 0.977,0.151 1.952,0.294 2.927,0.437 1.122,0.166 2.25,0.328 3.374,0.484 0.971,0.134 1.942,0.263 2.913,0.391 1.124,0.147 2.247,0.29 3.369,0.427 0.968,0.118 1.936,0.232 2.9,0.342 1.118,0.13 2.231,0.251 3.344,0.369 0.973,0.103 1.942,0.203 2.91,0.298 1.107,0.11 2.211,0.212 3.318,0.31 0.962,0.09 1.925,0.174 2.889,0.251 1.107,0.092 2.213,0.176 3.318,0.256 0.955,0.071 1.907,0.142 2.855,0.206 1.114,0.072 2.215,0.137 3.325,0.202 0.939,0.052 1.883,0.111 2.818,0.157 1.113,0.056 2.224,0.103 3.329,0.146 0.927,0.041 1.856,0.082 2.776,0.111 1.121,0.038 2.235,0.065 3.354,0.095 0.909,0.024 1.813,0.048 2.718,0.064 1.132,0.02 2.255,0.03 3.382,0.04 0.883,0.007 1.77,0.02 2.648,0.02 1.162,0.004 2.317,-0.009 3.474,-0.017 0.834,-0.006 1.673,-0.006 2.503,-0.02 1.246,-0.018 2.486,-0.051 3.726,-0.082 0.74,-0.017 1.479,-0.029 2.213,-0.05 1.584,-0.051 3.161,-0.115 4.736,-0.186 0.385,-0.018 0.769,-0.027 1.149,-0.046 1.944,-0.092 3.88,-0.201 5.811,-0.325 0.676,-0.043 1.344,-0.1 2.015,-0.146 1.263,-0.087 2.521,-0.175 3.772,-0.276 0.785,-0.063 1.563,-0.138 2.345,-0.209 1.127,-0.098 2.259,-0.198 3.382,-0.307 0.837,-0.083 1.66,-0.175 2.49,-0.262 1.058,-0.113 2.121,-0.225 3.175,-0.345 0.856,-0.101 1.706,-0.211 2.563,-0.316 1.014,-0.125 2.036,-0.25 3.048,-0.384 0.858,-0.116 1.715,-0.24 2.571,-0.364 0.991,-0.139 1.987,-0.28 2.971,-0.428 0.865,-0.132 1.726,-0.271 2.587,-0.41 0.966,-0.154 1.927,-0.31 2.891,-0.474 0.867,-0.145 1.726,-0.303 2.584,-0.454 0.943,-0.169 1.888,-0.339 2.827,-0.517 0.858,-0.163 1.717,-0.333 2.573,-0.5 0.927,-0.184 1.846,-0.369 2.764,-0.56 0.856,-0.179 1.702,-0.362 2.55,-0.545 0.913,-0.2 1.821,-0.401 2.727,-0.607 0.843,-0.191 1.682,-0.388 2.519,-0.584 0.894,-0.212 1.785,-0.43 2.676,-0.65 0.826,-0.207 1.661,-0.417 2.489,-0.63 0.878,-0.228 1.758,-0.461 2.63,-0.694 0.819,-0.222 1.639,-0.445 2.449,-0.671 0.869,-0.24 1.73,-0.489 2.582,-0.738 0.813,-0.234 1.619,-0.47 2.425,-0.714 0.853,-0.254 1.7,-0.519 2.546,-0.783 0.788,-0.247 1.579,-0.493 2.361,-0.747 0.843,-0.273 1.673,-0.554 2.512,-0.833 0.773,-0.261 1.552,-0.519 2.325,-0.786 0.825,-0.287 1.643,-0.583 2.46,-0.877 0.76,-0.274 1.524,-0.544 2.28,-0.826 0.817,-0.304 1.621,-0.615 2.43,-0.928 0.743,-0.284 1.481,-0.565 2.215,-0.856 0.817,-0.321 1.621,-0.655 2.43,-0.987 0.706,-0.291 1.425,-0.578 2.124,-0.875 0.821,-0.346 1.629,-0.71 2.446,-1.064 0.669,-0.295 1.351,-0.583 2.015,-0.881 0.865,-0.391 1.719,-0.794 2.575,-1.195 0.595,-0.278 1.195,-0.55 1.787,-0.83 1.409,-0.677 2.808,-1.369 4.188,-2.071 0.594,-0.304 1.18,-0.621 1.768,-0.928 0.797,-0.417 1.601,-0.829 2.383,-1.253 0.638,-0.347 1.265,-0.705 1.893,-1.056 0.716,-0.398 1.445,-0.795 2.153,-1.203 0.643,-0.369 1.271,-0.75 1.905,-1.126 0.682,-0.402 1.363,-0.801 2.029,-1.208 0.636,-0.388 1.261,-0.783 1.886,-1.18 0.651,-0.407 1.304,-0.816 1.944,-1.231 0.62,-0.404 1.232,-0.813 1.84,-1.223 0.629,-0.418 1.258,-0.839 1.876,-1.264 0.605,-0.418 1.199,-0.841 1.798,-1.266 0.599,-0.428 1.206,-0.856 1.801,-1.291 0.585,-0.432 1.166,-0.873 1.743,-1.309 0.581,-0.44 1.162,-0.879 1.734,-1.327 0.568,-0.442 1.132,-0.894 1.695,-1.345 0.56,-0.452 1.119,-0.902 1.665,-1.361 0.555,-0.458 1.092,-0.919 1.634,-1.381 0.542,-0.463 1.075,-0.928 1.606,-1.399 0.53,-0.466 1.053,-0.94 1.57,-1.414 0.524,-0.473 1.033,-0.953 1.542,-1.432 0.51,-0.484 1.014,-0.968 1.513,-1.455 0.498,-0.485 0.987,-0.975 1.477,-1.469 0.484,-0.489 0.966,-0.984 1.443,-1.481 0.475,-0.498 0.944,-1.002 1.409,-1.506 0.466,-0.504 0.927,-1.008 1.384,-1.519 0.452,-0.51 0.893,-1.024 1.339,-1.542 0.437,-0.513 0.883,-1.028 1.315,-1.548 0.435,-0.523 0.856,-1.053 1.275,-1.583 0.415,-0.522 0.837,-1.044 1.241,-1.573 0.41,-0.538 0.811,-1.083 1.215,-1.626 0.391,-0.532 0.786,-1.062 1.166,-1.598 0.392,-0.553 0.765,-1.113 1.145,-1.671 0.367,-0.537 0.736,-1.072 1.093,-1.617 0.371,-0.572 0.726,-1.154 1.084,-1.731 0.341,-0.541 0.686,-1.08 1.009,-1.624 0.358,-0.6 0.695,-1.209 1.038,-1.812 0.304,-0.538 0.618,-1.067 0.915,-1.606 0.348,-0.654 0.682,-1.313 1.019,-1.97 0.258,-0.505 0.528,-1.004 0.781,-1.513 2.336,-4.771 4.259,-9.716 5.735,-14.825 3.947,-13.686 3.878,-26.664 0.336,-38.968 30.413,-9.471 40.17,-48.873 40.17,-48.873 -17.569,16.713 -44.891,16.021 -60.86,13.792 -1.141,-1.25 -2.312,-2.494 -3.53,-3.727 14.855,-2.335 32.647,-7.16 47.826,-17.033 33.216,-21.607 10.312,-77.721 10.312,-77.721 -13.854,38.99 -67.2,62.073 -88.685,69.954 l -1.249,-0.916 c 9.434,-3.958 62.792,-29.368 61.223,-97.432 -1.721,-74.646 -74.584,-87.158 -74.584,-87.158 32.803,32.116 -10.126,169.834 -10.126,169.834 l 0,0.304 c -25.004,-13.422 -66.779,-30.658 -124.328,-36.847 18.911,2.817 69.151,25.889 82.599,45.982 l 0.269,0.437 c 1.748,2.722 2.84,5.39 3.043,7.936 1.748,21.471 -43.342,26.036 -43.342,26.036 0,0 -182.183,29.645 -201.452,-60.4 l -0.027,-10e-4 c -20.399,5.325 -36.705,11.453 -50.258,18.289 l -0.331,-1.734 c 0,0 -42.929,-137.719 -10.123,-169.834 0,0 -72.863,12.512 -74.586,87.158 -1.724,74.647 62.657,98.006 62.657,98.006 l -1.177,0.889 c -20.381,-7.32 -76.002,-30.568 -90.191,-70.502 -0.003,0 -22.907,56.114 10.311,77.721 z m 419.62,69.617 c 8.729,0 15.804,7.079 15.804,15.809 0,8.731 -7.074,15.807 -15.804,15.807 -8.734,0 -15.811,-7.076 -15.811,-15.807 0,-8.731 7.077,-15.809 15.811,-15.809 z m -143.898,10.642 c 8.729,0 15.81,7.076 15.81,15.807 0,8.732 -7.08,15.809 -15.81,15.809 -8.73,0 -15.807,-7.076 -15.807,-15.809 0.001,-8.731 7.078,-15.807 15.807,-15.807 z"
       id="path15"
       inkscape:connector-curvature="0"
       style="fill:#ffffff" /><path
       d="m 716.113,588.401 c -0.014,0.016 -0.022,0.033 -0.031,0.048 -0.096,0.142 -0.196,0.28 -0.288,0.419 -0.979,1.439 -1.958,2.869 -2.949,4.275 -0.358,0.505 -0.721,0.996 -1.079,1.497 -0.752,1.038 -1.499,2.078 -2.26,3.098 -0.428,0.581 -0.869,1.145 -1.302,1.721 -0.703,0.923 -1.398,1.851 -2.11,2.76 -0.468,0.597 -0.943,1.182 -1.411,1.771 -0.694,0.872 -1.385,1.743 -2.089,2.6 -0.489,0.595 -0.987,1.18 -1.477,1.77 -0.699,0.833 -1.394,1.665 -2.102,2.484 -0.507,0.588 -1.022,1.169 -1.538,1.754 -0.703,0.802 -1.407,1.604 -2.119,2.395 -0.524,0.577 -1.049,1.141 -1.573,1.709 -0.721,0.782 -1.441,1.562 -2.167,2.328 -0.528,0.56 -1.062,1.108 -1.595,1.654 -0.738,0.767 -1.481,1.527 -2.229,2.278 -0.528,0.538 -1.066,1.066 -1.599,1.593 -0.765,0.754 -1.525,1.501 -2.299,2.244 -0.528,0.507 -1.062,1.009 -1.595,1.516 -0.791,0.738 -1.586,1.477 -2.386,2.211 -0.524,0.48 -1.053,0.957 -1.586,1.438 -0.821,0.736 -1.651,1.466 -2.478,2.193 -0.516,0.45 -1.031,0.898 -1.547,1.342 -0.865,0.738 -1.73,1.468 -2.604,2.197 -0.498,0.411 -0.994,0.826 -1.499,1.241 -0.909,0.743 -1.829,1.479 -2.744,2.211 -0.472,0.371 -0.935,0.745 -1.411,1.114 -0.979,0.765 -1.962,1.516 -2.949,2.261 -0.424,0.321 -0.848,0.646 -1.271,0.964 -1.07,0.795 -2.146,1.577 -3.221,2.354 -0.355,0.258 -0.712,0.516 -1.065,0.77 -1.215,0.865 -2.434,1.713 -3.659,2.554 -0.226,0.155 -0.453,0.313 -0.68,0.47 -8.939,6.073 -18.242,11.521 -27.851,16.394 -0.039,0.018 -0.078,0.04 -0.115,0.062 -1.552,0.777 -3.104,1.547 -4.667,2.303 -0.124,0.061 -0.256,0.118 -0.382,0.179 -1.479,0.71 -2.967,1.407 -4.459,2.091 -0.173,0.083 -0.352,0.162 -0.526,0.242 -1.455,0.66 -2.908,1.309 -4.374,1.945 -0.199,0.087 -0.402,0.174 -0.607,0.262 -1.439,0.625 -2.888,1.236 -4.343,1.835 -0.212,0.088 -0.424,0.18 -0.639,0.263 -1.45,0.594 -2.909,1.18 -4.369,1.747 -0.214,0.085 -0.43,0.171 -0.643,0.254 -1.475,0.572 -2.949,1.134 -4.435,1.68 -0.196,0.072 -0.394,0.146 -0.59,0.217 -1.512,0.555 -3.032,1.101 -4.553,1.632 -0.166,0.059 -0.332,0.12 -0.503,0.175 -1.563,0.544 -3.128,1.072 -4.705,1.593 -0.127,0.043 -0.256,0.082 -0.385,0.126 -1.634,0.538 -3.272,1.06 -4.922,1.569 -0.062,0.021 -0.122,0.039 -0.186,0.061 -23.232,7.179 -47.521,11.78 -72.199,14.274 -0.007,0 -0.014,0.005 -0.018,0.005 -3.447,0.35 -6.899,0.653 -10.352,0.922 -0.023,0 -0.043,0.002 -0.069,0.004 -3.454,0.267 -6.912,0.494 -10.38,0.682 -0.02,0 -0.041,0 -0.061,0.005 -3.472,0.184 -6.938,0.336 -10.414,0.45 -0.018,0 -0.031,0 -0.049,0 -3.476,0.113 -6.949,0.188 -10.425,0.227 -0.022,0 -0.037,0 -0.057,0 -3.479,0.037 -6.961,0.04 -10.435,0.009 -0.013,0 -0.021,0 -0.035,0 -3.484,-0.032 -6.969,-0.101 -10.446,-0.196 -0.003,0 -0.005,0 -0.009,0 -66.661,-1.932 -131.959,-16.149 -182.761,-33.482 -0.059,-0.024 -0.115,-0.044 -0.174,-0.063 -1.299,-0.445 -2.59,-0.892 -3.871,-1.337 -0.121,-0.046 -0.244,-0.085 -0.365,-0.129 -1.216,-0.428 -2.424,-0.854 -3.621,-1.284 -0.168,-0.062 -0.336,-0.118 -0.501,-0.18 -1.147,-0.415 -2.288,-0.828 -3.42,-1.245 -0.204,-0.074 -0.405,-0.148 -0.609,-0.223 -1.09,-0.402 -2.175,-0.804 -3.25,-1.21 -0.234,-0.088 -0.462,-0.173 -0.695,-0.261 -1.03,-0.396 -2.057,-0.782 -3.076,-1.178 -0.27,-0.103 -0.542,-0.209 -0.812,-0.312 -0.971,-0.374 -1.937,-0.756 -2.895,-1.134 -0.298,-0.118 -0.595,-0.236 -0.893,-0.354 -0.921,-0.367 -1.837,-0.731 -2.745,-1.101 -0.318,-0.129 -0.635,-0.258 -0.95,-0.385 -0.879,-0.358 -1.754,-0.717 -2.621,-1.075 -0.333,-0.14 -0.664,-0.279 -0.994,-0.415 -0.836,-0.352 -1.667,-0.701 -2.493,-1.053 -0.35,-0.148 -0.698,-0.297 -1.044,-0.445 -0.799,-0.341 -1.588,-0.682 -2.372,-1.022 -0.359,-0.157 -0.714,-0.313 -1.068,-0.468 -0.766,-0.341 -1.525,-0.673 -2.279,-1.01 -0.364,-0.161 -0.725,-0.323 -1.085,-0.487 -0.727,-0.325 -1.446,-0.655 -2.161,-0.979 -0.375,-0.175 -0.75,-0.347 -1.124,-0.521 -0.69,-0.315 -1.373,-0.639 -2.053,-0.955 -0.382,-0.182 -0.762,-0.36 -1.14,-0.54 -0.66,-0.31 -1.314,-0.624 -1.962,-0.937 -0.376,-0.182 -0.756,-0.365 -1.131,-0.547 -0.637,-0.313 -1.267,-0.62 -1.892,-0.931 -0.377,-0.188 -0.751,-0.371 -1.123,-0.559 -0.605,-0.3 -1.203,-0.607 -1.796,-0.907 -0.381,-0.192 -0.761,-0.389 -1.136,-0.583 -0.574,-0.295 -1.137,-0.588 -1.7,-0.883 -0.38,-0.196 -0.762,-0.396 -1.136,-0.594 -0.549,-0.291 -1.087,-0.581 -1.625,-0.872 -0.371,-0.196 -0.746,-0.397 -1.115,-0.603 -0.52,-0.284 -1.033,-0.564 -1.542,-0.848 -0.371,-0.208 -0.747,-0.415 -1.112,-0.619 -0.495,-0.277 -0.978,-0.557 -1.462,-0.832 -0.365,-0.21 -0.732,-0.419 -1.09,-0.625 -0.475,-0.279 -0.938,-0.55 -1.403,-0.825 -0.352,-0.206 -0.708,-0.415 -1.055,-0.623 -0.449,-0.271 -0.887,-0.535 -1.329,-0.806 -0.346,-0.212 -0.697,-0.424 -1.038,-0.634 -0.425,-0.271 -0.842,-0.528 -1.261,-0.793 -0.332,-0.212 -0.674,-0.426 -1.001,-0.636 -0.408,-0.263 -0.802,-0.521 -1.199,-0.782 -0.322,-0.214 -0.65,-0.424 -0.966,-0.638 -0.393,-0.258 -0.772,-0.521 -1.154,-0.782 -0.304,-0.205 -0.61,-0.411 -0.907,-0.614 -0.374,-0.26 -0.731,-0.518 -1.093,-0.775 -0.292,-0.205 -0.59,-0.413 -0.875,-0.62 -0.348,-0.252 -0.685,-0.503 -1.024,-0.752 -0.277,-0.207 -0.562,-0.415 -0.832,-0.62 -0.344,-0.258 -0.67,-0.516 -1.001,-0.778 -0.249,-0.189 -0.506,-0.387 -0.75,-0.581 -0.342,-0.271 -0.667,-0.537 -0.995,-0.808 -0.216,-0.178 -0.442,-0.354 -0.653,-0.533 -0.344,-0.289 -0.668,-0.568 -0.998,-0.853 -0.179,-0.157 -0.368,-0.314 -0.543,-0.467 -0.496,-0.441 -0.972,-0.874 -1.43,-1.305 -0.874,-0.828 -1.726,-1.637 -2.558,-2.442 -0.287,-0.275 -0.561,-0.546 -0.841,-0.821 -0.536,-0.522 -1.075,-1.047 -1.595,-1.561 -0.319,-0.32 -0.627,-0.631 -0.939,-0.943 -0.466,-0.465 -0.932,-0.933 -1.383,-1.396 -0.314,-0.318 -0.618,-0.638 -0.927,-0.952 -0.429,-0.445 -0.856,-0.892 -1.272,-1.326 -0.306,-0.321 -0.602,-0.64 -0.9,-0.957 -0.399,-0.426 -0.798,-0.85 -1.185,-1.269 -0.291,-0.314 -0.575,-0.63 -0.86,-0.939 -0.375,-0.415 -0.749,-0.83 -1.113,-1.237 -0.273,-0.31 -0.544,-0.613 -0.813,-0.922 -0.355,-0.401 -0.705,-0.799 -1.048,-1.201 -0.257,-0.297 -0.512,-0.595 -0.765,-0.892 -0.337,-0.397 -0.668,-0.791 -0.995,-1.184 -0.234,-0.286 -0.472,-0.57 -0.701,-0.853 -0.327,-0.397 -0.642,-0.791 -0.956,-1.182 -0.214,-0.269 -0.43,-0.54 -0.64,-0.802 -0.319,-0.406 -0.624,-0.804 -0.93,-1.201 -0.186,-0.243 -0.375,-0.49 -0.557,-0.728 -0.323,-0.427 -0.631,-0.846 -0.94,-1.268 -0.148,-0.203 -0.304,-0.411 -0.449,-0.611 -0.351,-0.485 -0.684,-0.964 -1.015,-1.436 -0.092,-0.131 -0.189,-0.263 -0.279,-0.396 -0.843,-1.221 -1.62,-2.41 -2.335,-3.565 -0.057,-0.085 -0.106,-0.17 -0.161,-0.26 -0.296,-0.481 -0.583,-0.957 -0.857,-1.425 -0.087,-0.153 -0.171,-0.301 -0.258,-0.45 -0.229,-0.402 -0.458,-0.804 -0.675,-1.193 -0.092,-0.17 -0.179,-0.336 -0.268,-0.502 -0.199,-0.367 -0.394,-0.734 -0.579,-1.092 -0.091,-0.177 -0.175,-0.35 -0.262,-0.524 -0.174,-0.343 -0.342,-0.686 -0.503,-1.024 -0.084,-0.175 -0.162,-0.348 -0.245,-0.522 -0.155,-0.332 -0.304,-0.664 -0.446,-0.987 -0.074,-0.17 -0.146,-0.336 -0.215,-0.498 -0.139,-0.328 -0.273,-0.651 -0.398,-0.97 -0.063,-0.157 -0.128,-0.317 -0.187,-0.476 -0.124,-0.317 -0.241,-0.636 -0.353,-0.948 -0.055,-0.148 -0.108,-0.297 -0.16,-0.446 -0.111,-0.319 -0.214,-0.636 -0.313,-0.948 -0.042,-0.131 -0.086,-0.264 -0.127,-0.395 -0.102,-0.331 -0.193,-0.66 -0.284,-0.983 -0.027,-0.106 -0.06,-0.211 -0.087,-0.317 -0.095,-0.355 -0.179,-0.707 -0.26,-1.051 -0.014,-0.069 -0.03,-0.14 -0.049,-0.208 -0.375,-1.683 -0.578,-3.249 -0.642,-4.705 -0.001,-0.024 -0.001,-0.049 -0.001,-0.074 -0.013,-0.332 -0.02,-0.658 -0.016,-0.978 0,-0.057 0.001,-0.112 0.001,-0.17 0.003,-0.285 0.012,-0.567 0.025,-0.845 0.003,-0.07 0.011,-0.137 0.014,-0.208 0.017,-0.26 0.037,-0.517 0.063,-0.77 0.008,-0.074 0.014,-0.145 0.022,-0.216 0.029,-0.248 0.06,-0.488 0.097,-0.729 0.01,-0.072 0.02,-0.143 0.034,-0.212 0.037,-0.235 0.081,-0.468 0.127,-0.695 0.014,-0.067 0.027,-0.136 0.042,-0.201 0.047,-0.229 0.101,-0.452 0.159,-0.672 0.015,-0.061 0.031,-0.125 0.047,-0.185 0.062,-0.226 0.126,-0.449 0.194,-0.667 0.014,-0.05 0.031,-0.098 0.045,-0.146 0.074,-0.231 0.154,-0.458 0.236,-0.681 0.013,-0.03 0.023,-0.064 0.036,-0.097 0.092,-0.246 0.19,-0.489 0.292,-0.722 0.002,-0.007 0.004,-0.013 0.005,-0.021 0.538,-1.234 1.188,-2.317 1.893,-3.266 0.009,-0.015 0.021,-0.03 0.034,-0.043 0.125,-0.169 0.253,-0.334 0.384,-0.497 0.021,-0.027 0.044,-0.05 0.064,-0.078 0.123,-0.147 0.244,-0.291 0.365,-0.432 0.027,-0.033 0.055,-0.063 0.084,-0.094 0.117,-0.131 0.236,-0.263 0.357,-0.389 0.027,-0.029 0.058,-0.062 0.087,-0.094 0.118,-0.121 0.234,-0.239 0.352,-0.356 0.034,-0.032 0.068,-0.064 0.103,-0.098 0.115,-0.112 0.229,-0.22 0.344,-0.325 0.034,-0.031 0.066,-0.061 0.099,-0.093 0.118,-0.103 0.237,-0.208 0.354,-0.308 0.028,-0.026 0.06,-0.054 0.088,-0.076 0.121,-0.102 0.241,-0.202 0.362,-0.298 0.024,-0.02 0.049,-0.041 0.076,-0.06 0.129,-0.105 0.26,-0.203 0.387,-0.301 0.014,-0.01 0.025,-0.02 0.041,-0.027 0.57,-0.427 1.114,-0.782 1.6,-1.072 0.035,-0.021 0.066,-0.039 0.099,-0.058 0.082,-0.049 0.168,-0.097 0.247,-0.142 0.045,-0.026 0.088,-0.049 0.135,-0.077 0.059,-0.033 0.121,-0.066 0.178,-0.098 0.054,-0.026 0.104,-0.051 0.152,-0.078 0.05,-0.027 0.101,-0.053 0.147,-0.078 0.051,-0.027 0.103,-0.051 0.153,-0.078 0.034,-0.016 0.068,-0.033 0.101,-0.049 0.057,-0.025 0.109,-0.053 0.163,-0.078 0.023,-0.011 0.047,-0.022 0.071,-0.034 0.056,-0.024 0.108,-0.049 0.157,-0.071 0.115,-0.051 0.21,-0.091 0.287,-0.125 0.062,-0.024 0.107,-0.044 0.189,-0.074 0.02,-0.007 0.03,-0.013 0.03,-0.013 -13.403,-0.358 -30.176,25.379 -25.312,67.767 6.706,79.002 34.457,142.248 152.858,172.519 l -8.635,42.381 87.775,-28.661 c 7.948,0.859 16.18,1.621 24.677,2.29 17.617,1.388 36.436,2.364 56.542,2.901 0.262,0.004 0.521,0.016 0.784,0.021 7.589,0.197 15.362,0.332 23.316,0.406 0.809,0.007 1.626,0.014 2.437,0.022 3.841,0.026 7.698,0.046 11.624,0.046 2.069,0 4.121,-0.012 6.15,-0.033 0.659,-0.004 1.307,-0.026 1.962,-0.035 0.834,-0.013 1.669,-0.026 2.49,-0.041 0.35,-0.007 0.708,-0.011 1.058,-0.02 0.181,-0.005 0.369,-0.005 0.553,-0.009 0.769,-0.018 1.531,-0.044 2.3,-0.065 1.215,-0.033 2.435,-0.062 3.634,-0.105 0.832,-0.026 1.653,-0.065 2.481,-0.098 0.273,-0.014 0.549,-0.024 0.819,-0.033 0.48,-0.02 0.957,-0.039 1.429,-0.062 0.376,-0.018 0.756,-0.026 1.13,-0.043 0.83,-0.04 1.641,-0.09 2.462,-0.127 1.099,-0.06 2.202,-0.114 3.285,-0.18 0.791,-0.043 1.573,-0.101 2.36,-0.152 0.025,-0.002 0.052,-0.002 0.074,-0.002 0.491,-0.033 0.979,-0.063 1.47,-0.099 0.586,-0.037 1.178,-0.074 1.763,-0.113 0.787,-0.06 1.566,-0.121 2.352,-0.18 1.07,-0.083 2.141,-0.166 3.198,-0.256 0.583,-0.046 1.157,-0.098 1.736,-0.15 0.203,-0.018 0.409,-0.035 0.607,-0.059 0.212,-0.016 0.417,-0.035 0.627,-0.055 0.83,-0.079 1.665,-0.148 2.488,-0.229 0.767,-0.074 1.519,-0.155 2.279,-0.234 1.03,-0.103 2.064,-0.209 3.089,-0.318 0.385,-0.044 0.765,-0.092 1.149,-0.131 0.233,-0.031 0.467,-0.058 0.703,-0.083 0.122,-0.018 0.244,-0.031 0.371,-0.044 1.014,-0.12 2.032,-0.236 3.041,-0.362 0.729,-0.092 1.451,-0.188 2.176,-0.28 1.005,-0.136 2.011,-0.262 2.998,-0.396 0.703,-0.101 1.402,-0.201 2.102,-0.304 1,-0.144 2.001,-0.288 2.99,-0.437 0.676,-0.103 1.344,-0.214 2.013,-0.317 0.825,-0.129 1.647,-0.26 2.464,-0.397 0.143,-0.021 0.288,-0.041 0.429,-0.067 0.026,-0.007 0.061,-0.009 0.085,-0.018 0.653,-0.104 1.3,-0.219 1.946,-0.332 0.992,-0.171 1.979,-0.339 2.956,-0.52 0.632,-0.109 1.254,-0.229 1.877,-0.35 0.516,-0.092 1.028,-0.192 1.538,-0.293 0.249,-0.046 0.495,-0.092 0.742,-0.143 0.212,-0.039 0.433,-0.08 0.646,-0.12 0.612,-0.122 1.215,-0.244 1.818,-0.366 0.972,-0.197 1.944,-0.396 2.905,-0.604 0.586,-0.122 1.162,-0.249 1.741,-0.376 0.297,-0.063 0.588,-0.131 0.883,-0.196 0.247,-0.053 0.496,-0.104 0.74,-0.161 0.424,-0.101 0.853,-0.19 1.271,-0.284 0.56,-0.129 1.11,-0.258 1.663,-0.387 0.965,-0.228 1.925,-0.452 2.877,-0.687 0.537,-0.133 1.068,-0.264 1.604,-0.399 0.12,-0.03 0.247,-0.062 0.369,-0.094 0.173,-0.042 0.339,-0.086 0.509,-0.129 0.66,-0.166 1.319,-0.332 1.979,-0.505 0.511,-0.134 1.019,-0.269 1.522,-0.4 0.955,-0.26 1.907,-0.518 2.847,-0.777 0.466,-0.131 0.925,-0.262 1.386,-0.394 0.011,-0.004 0.021,-0.006 0.034,-0.006 0.003,-0.003 0.005,-0.003 0.009,-0.003 0.007,-0.004 0.016,-0.008 0.022,-0.008 0.95,-0.271 1.896,-0.547 2.835,-0.819 0.464,-0.136 0.922,-0.275 1.381,-0.413 0.446,-0.136 0.888,-0.271 1.328,-0.411 0.162,-0.048 0.332,-0.096 0.49,-0.148 0.336,-0.101 0.668,-0.205 1,-0.308 0.441,-0.136 0.879,-0.273 1.313,-0.418 0.941,-0.297 1.874,-0.603 2.803,-0.91 0.415,-0.138 0.832,-0.278 1.249,-0.42 0.936,-0.313 1.857,-0.632 2.775,-0.957 0.397,-0.138 0.793,-0.277 1.19,-0.419 0.196,-0.068 0.387,-0.143 0.581,-0.215 0.026,-0.006 0.055,-0.015 0.076,-0.023 0.708,-0.258 1.414,-0.509 2.115,-0.767 0.367,-0.141 0.738,-0.275 1.105,-0.413 0.699,-0.263 1.385,-0.531 2.077,-0.8 0.037,-0.009 0.063,-0.021 0.099,-0.035 0.196,-0.074 0.397,-0.148 0.594,-0.227 0.341,-0.132 0.687,-0.267 1.027,-0.402 0.926,-0.367 1.848,-0.738 2.764,-1.116 0.318,-0.129 0.642,-0.263 0.959,-0.396 0.484,-0.201 0.957,-0.406 1.438,-0.609 0.057,-0.024 0.109,-0.046 0.161,-0.072 0.385,-0.162 0.768,-0.319 1.146,-0.48 0.301,-0.132 0.603,-0.263 0.899,-0.392 0.927,-0.399 1.835,-0.811 2.742,-1.221 0.275,-0.127 0.548,-0.245 0.819,-0.372 0.313,-0.144 0.616,-0.288 0.926,-0.433 0.007,-0.004 0.014,-0.009 0.018,-0.009 0.011,-0.004 0.022,-0.008 0.031,-0.015 0.59,-0.271 1.18,-0.546 1.761,-0.819 0.249,-0.125 0.504,-0.24 0.753,-0.363 0.918,-0.44 1.824,-0.882 2.721,-1.334 0.12,-0.055 0.24,-0.114 0.355,-0.173 0.024,-0.013 0.051,-0.021 0.074,-0.03 0.249,1.317 0.439,2.61 0.609,3.893 0.051,0.378 0.092,0.752 0.136,1.127 0.048,0.411 0.077,0.817 0.114,1.229 0,0.018 0.004,0.03 0.004,0.043 0,0.014 0.004,0.018 0.004,0.029 0.049,0.498 0.105,0.993 0.138,1.487 0.028,0.374 0.06,0.747 0.077,1.118 0.069,1.211 0.111,2.41 0.109,3.586 -0.022,4.052 -0.459,7.897 -1.28,11.557 -0.021,0.087 -0.049,0.168 -0.07,0.251 -0.26,1.125 -0.548,2.23 -0.878,3.316 -0.068,0.214 -0.148,0.417 -0.217,0.629 -0.31,0.953 -0.622,1.895 -0.985,2.818 -0.106,0.275 -0.231,0.537 -0.345,0.809 -0.35,0.848 -0.703,1.693 -1.097,2.517 -0.143,0.302 -0.311,0.586 -0.459,0.883 -0.391,0.782 -0.786,1.564 -1.224,2.32 -0.175,0.314 -0.375,0.611 -0.557,0.915 -0.443,0.729 -0.879,1.462 -1.351,2.172 -0.212,0.316 -0.447,0.618 -0.662,0.928 -0.48,0.687 -0.961,1.372 -1.477,2.045 -0.244,0.311 -0.502,0.607 -0.747,0.913 -0.526,0.653 -1.051,1.312 -1.607,1.944 -0.271,0.302 -0.556,0.591 -0.826,0.888 -0.568,0.627 -1.141,1.247 -1.743,1.856 -0.289,0.289 -0.599,0.57 -0.894,0.858 -0.618,0.597 -1.239,1.195 -1.886,1.776 -0.311,0.28 -0.634,0.544 -0.952,0.817 -0.662,0.576 -1.328,1.151 -2.023,1.711 -0.327,0.264 -0.668,0.518 -1.005,0.779 -0.71,0.551 -1.425,1.102 -2.163,1.641 -0.345,0.249 -0.703,0.492 -1.053,0.736 -0.758,0.531 -1.519,1.066 -2.307,1.584 -0.352,0.229 -0.717,0.452 -1.073,0.682 -0.811,0.518 -1.627,1.031 -2.469,1.531 -0.36,0.219 -0.731,0.424 -1.103,0.639 -0.859,0.5 -1.727,0.998 -2.609,1.477 -0.366,0.201 -0.744,0.393 -1.113,0.588 -0.918,0.484 -1.838,0.968 -2.781,1.435 -0.36,0.18 -0.734,0.354 -1.104,0.533 -0.97,0.468 -1.944,0.936 -2.942,1.386 -0.36,0.17 -0.736,0.327 -1.108,0.489 -1.022,0.454 -2.049,0.904 -3.1,1.341 -0.358,0.148 -0.728,0.293 -1.09,0.441 -1.08,0.438 -2.161,0.874 -3.269,1.293 -0.354,0.136 -0.712,0.267 -1.062,0.398 -1.134,0.426 -2.276,0.839 -3.439,1.249 -0.34,0.12 -0.686,0.234 -1.03,0.354 -1.191,0.41 -2.397,0.813 -3.618,1.208 -0.323,0.098 -0.646,0.203 -0.97,0.304 -1.254,0.397 -2.521,0.786 -3.804,1.162 -0.304,0.096 -0.614,0.184 -0.92,0.269 -1.315,0.385 -2.644,0.761 -3.984,1.125 -0.282,0.074 -0.566,0.148 -0.853,0.228 -1.376,0.362 -2.766,0.725 -4.164,1.074 -0.267,0.066 -0.528,0.129 -0.788,0.195 -1.44,0.355 -2.893,0.696 -4.356,1.033 -0.226,0.052 -0.459,0.104 -0.692,0.155 -1.504,0.338 -3.018,0.673 -4.545,0.989 -0.205,0.044 -0.41,0.083 -0.615,0.129 -1.564,0.323 -3.146,0.64 -4.736,0.943 -0.166,0.033 -0.332,0.062 -0.498,0.095 -1.633,0.31 -3.282,0.611 -4.942,0.899 -0.129,0.024 -0.262,0.048 -0.394,0.07 -1.699,0.297 -3.412,0.581 -5.136,0.856 -0.094,0.013 -0.184,0.028 -0.277,0.041 -1.766,0.282 -3.544,0.553 -5.333,0.811 -0.05,0.007 -0.103,0.018 -0.159,0.022 -1.831,0.267 -3.671,0.518 -5.523,0.765 -0.011,0 -0.023,0.002 -0.034,0.002 -2.172,0.284 -4.353,0.553 -6.555,0.811 0,0 -0.002,0 -0.004,0 -1.813,0.214 -3.633,0.415 -5.457,0.607 -0.051,0.004 -0.099,0.011 -0.145,0.018 -1.791,0.184 -3.587,0.364 -5.39,0.532 -0.087,0.009 -0.173,0.018 -0.256,0.029 -1.765,0.163 -3.532,0.32 -5.307,0.472 -0.133,0.011 -0.264,0.02 -0.397,0.032 -1.732,0.145 -3.467,0.284 -5.21,0.411 -0.173,0.016 -0.348,0.028 -0.524,0.041 -1.7,0.125 -3.41,0.247 -5.121,0.358 -0.212,0.014 -0.428,0.026 -0.643,0.042 -1.678,0.109 -3.357,0.214 -5.037,0.308 -0.25,0.014 -0.494,0.026 -0.743,0.039 -1.656,0.097 -3.31,0.182 -4.964,0.261 -0.279,0.013 -0.555,0.026 -0.834,0.043 -1.626,0.079 -3.251,0.149 -4.881,0.217 -0.314,0.013 -0.629,0.021 -0.948,0.035 -1.586,0.063 -3.177,0.124 -4.765,0.175 -0.356,0.013 -0.71,0.023 -1.066,0.037 -1.562,0.048 -3.122,0.092 -4.677,0.135 -0.381,0.009 -0.759,0.018 -1.137,0.026 -1.531,0.037 -3.059,0.074 -4.583,0.101 -0.415,0.011 -0.826,0.018 -1.241,0.024 -1.505,0.026 -3.006,0.05 -4.507,0.072 -0.422,0.002 -0.841,0.004 -1.261,0.013 -1.477,0.016 -2.953,0.03 -4.426,0.039 -0.472,0.005 -0.941,0.005 -1.411,0.009 -1.426,0.005 -2.85,0.014 -4.269,0.014 -0.501,0 -1,0 -1.5,-0.005 -1.389,0 -2.777,-0.004 -4.158,-0.009 -0.529,-0.004 -1.059,-0.009 -1.587,-0.011 -1.349,-0.009 -2.697,-0.021 -4.039,-0.035 -0.56,-0.006 -1.113,-0.013 -1.673,-0.02 -1.306,-0.018 -2.612,-0.032 -3.911,-0.055 -0.583,-0.011 -1.16,-0.02 -1.744,-0.028 -1.268,-0.021 -2.539,-0.046 -3.803,-0.072 -0.613,-0.013 -1.222,-0.028 -1.834,-0.041 -1.215,-0.026 -2.435,-0.057 -3.643,-0.083 -0.657,-0.018 -1.309,-0.037 -1.965,-0.057 -1.162,-0.031 -2.322,-0.066 -3.476,-0.097 -0.672,-0.02 -1.338,-0.046 -2.007,-0.065 -1.125,-0.035 -2.248,-0.07 -3.359,-0.104 -0.73,-0.031 -1.452,-0.058 -2.178,-0.086 -1.038,-0.037 -2.076,-0.074 -3.105,-0.113 -0.794,-0.032 -1.574,-0.062 -2.36,-0.096 -0.96,-0.037 -1.925,-0.074 -2.876,-0.114 -0.809,-0.037 -1.604,-0.074 -2.41,-0.109 -0.913,-0.039 -1.832,-0.08 -2.737,-0.12 -0.88,-0.041 -1.746,-0.083 -2.617,-0.126 -0.812,-0.042 -1.631,-0.077 -2.432,-0.118 -1.041,-0.053 -2.065,-0.107 -3.094,-0.159 -0.622,-0.033 -1.251,-0.063 -1.872,-0.099 -1.636,-0.088 -3.262,-0.175 -4.863,-0.267 C 250.233,869.833 165.805,784.816 165.805,784.816 304.61,964.463 464.5,938.711 561.639,894.727 c 1.197,-0.544 2.372,-1.091 3.53,-1.644 0.376,-0.177 0.745,-0.362 1.123,-0.541 0.763,-0.37 1.531,-0.741 2.278,-1.114 0.445,-0.221 0.881,-0.446 1.315,-0.664 0.666,-0.341 1.33,-0.682 1.983,-1.022 0.452,-0.236 0.894,-0.473 1.335,-0.708 0.625,-0.332 1.241,-0.66 1.849,-0.996 0.445,-0.247 0.882,-0.49 1.319,-0.73 0.599,-0.334 1.184,-0.67 1.765,-1 0.424,-0.249 0.848,-0.489 1.268,-0.738 0.576,-0.337 1.149,-0.68 1.713,-1.022 0.401,-0.243 0.806,-0.485 1.201,-0.729 0.568,-0.35 1.123,-0.702 1.678,-1.051 0.376,-0.238 0.752,-0.475 1.119,-0.715 0.576,-0.371 1.138,-0.743 1.697,-1.114 0.334,-0.221 0.671,-0.441 0.998,-0.664 0.634,-0.429 1.248,-0.858 1.866,-1.291 0.235,-0.168 0.48,-0.334 0.712,-0.498 0.844,-0.601 1.669,-1.202 2.478,-1.812 0.148,-0.104 0.288,-0.214 0.433,-0.323 0.659,-0.496 1.309,-0.992 1.939,-1.487 0.273,-0.217 0.538,-0.436 0.809,-0.649 0.496,-0.396 0.983,-0.786 1.466,-1.184 0.295,-0.243 0.581,-0.485 0.872,-0.729 0.441,-0.37 0.878,-0.741 1.311,-1.11 0.293,-0.258 0.583,-0.511 0.874,-0.771 0.404,-0.358 0.809,-0.721 1.21,-1.081 0.286,-0.262 0.57,-0.524 0.853,-0.791 0.384,-0.358 0.765,-0.717 1.145,-1.074 0.271,-0.267 0.542,-0.527 0.813,-0.791 0.369,-0.363 0.734,-0.726 1.093,-1.091 0.258,-0.26 0.516,-0.52 0.767,-0.779 0.365,-0.374 0.719,-0.752 1.072,-1.128 0.231,-0.244 0.466,-0.493 0.69,-0.738 0.376,-0.408 0.738,-0.813 1.097,-1.215 0.19,-0.221 0.394,-0.441 0.588,-0.659 0.435,-0.503 0.856,-1.003 1.273,-1.503 0.105,-0.123 0.215,-0.249 0.317,-0.376 0.513,-0.627 1.018,-1.254 1.51,-1.884 0.126,-0.161 0.249,-0.323 0.371,-0.489 0.354,-0.461 0.708,-0.926 1.049,-1.389 0.17,-0.228 0.336,-0.464 0.502,-0.695 0.284,-0.394 0.568,-0.791 0.844,-1.184 0.175,-0.258 0.35,-0.51 0.52,-0.765 0.254,-0.372 0.505,-0.747 0.747,-1.121 0.175,-0.262 0.339,-0.522 0.507,-0.782 0.231,-0.369 0.463,-0.731 0.688,-1.099 0.161,-0.267 0.325,-0.533 0.485,-0.8 0.216,-0.36 0.426,-0.721 0.636,-1.081 0.152,-0.269 0.306,-0.531 0.454,-0.798 0.205,-0.367 0.402,-0.728 0.597,-1.088 0.142,-0.262 0.286,-0.524 0.421,-0.782 0.197,-0.38 0.387,-0.754 0.572,-1.127 0.125,-0.245 0.25,-0.489 0.372,-0.734 0.201,-0.415 0.397,-0.83 0.585,-1.238 0.099,-0.203 0.197,-0.408 0.289,-0.609 0.267,-0.584 0.52,-1.165 0.767,-1.744 0.011,-0.034 0.032,-0.067 0.046,-0.104 0.262,-0.611 0.507,-1.228 0.742,-1.835 0.079,-0.196 0.149,-0.394 0.224,-0.59 0.157,-0.406 0.314,-0.821 0.458,-1.232 0.088,-0.242 0.169,-0.484 0.252,-0.726 0.127,-0.362 0.255,-0.729 0.375,-1.09 0.081,-0.256 0.162,-0.509 0.238,-0.763 0.109,-0.35 0.221,-0.694 0.323,-1.044 0.079,-0.258 0.155,-0.514 0.228,-0.769 0.097,-0.346 0.192,-0.688 0.288,-1.027 0.065,-0.26 0.136,-0.518 0.199,-0.769 0.09,-0.341 0.175,-0.682 0.256,-1.019 0.061,-0.258 0.122,-0.505 0.181,-0.76 0.081,-0.341 0.151,-0.673 0.226,-1.01 0.048,-0.249 0.106,-0.5 0.159,-0.749 0.072,-0.346 0.136,-0.695 0.199,-1.04 0.043,-0.229 0.087,-0.459 0.126,-0.692 0.072,-0.385 0.134,-0.77 0.195,-1.153 0.028,-0.188 0.063,-0.376 0.089,-0.56 0.086,-0.563 0.171,-1.123 0.24,-1.683 0.014,-0.126 0.026,-0.249 0.042,-0.38 0.05,-0.433 0.103,-0.865 0.148,-1.298 0.024,-0.21 0.039,-0.417 0.059,-0.627 0.035,-0.348 0.065,-0.688 0.09,-1.029 0.024,-0.231 0.037,-0.461 0.053,-0.686 0.02,-0.314 0.046,-0.631 0.061,-0.943 0.014,-0.245 0.024,-0.481 0.033,-0.719 0.018,-0.298 0.028,-0.595 0.039,-0.892 0.009,-0.238 0.016,-0.479 0.018,-0.721 0.011,-0.291 0.014,-0.584 0.018,-0.872 0.005,-0.236 0.009,-0.47 0.009,-0.706 0,-0.286 0,-0.574 -0.004,-0.858 -0.005,-0.233 -0.005,-0.463 -0.012,-0.692 -0.002,-0.286 -0.013,-0.574 -0.02,-0.858 -0.006,-0.221 -0.013,-0.441 -0.02,-0.664 -0.013,-0.293 -0.028,-0.584 -0.046,-0.874 -0.009,-0.208 -0.016,-0.415 -0.028,-0.616 -0.024,-0.325 -0.046,-0.645 -0.063,-0.968 -0.013,-0.161 -0.023,-0.334 -0.039,-0.496 -0.035,-0.472 -0.079,-0.939 -0.122,-1.402 -0.022,-0.179 -0.04,-0.354 -0.058,-0.533 -0.03,-0.286 -0.061,-0.576 -0.091,-0.86 -0.026,-0.21 -0.053,-0.42 -0.084,-0.629 -0.028,-0.245 -0.057,-0.494 -0.092,-0.739 -0.025,-0.209 -0.059,-0.417 -0.087,-0.624 -0.035,-0.238 -0.07,-0.477 -0.107,-0.717 -0.032,-0.208 -0.063,-0.415 -0.098,-0.616 -0.035,-0.228 -0.074,-0.45 -0.109,-0.678 -0.039,-0.209 -0.07,-0.412 -0.109,-0.62 -0.044,-0.216 -0.081,-0.433 -0.12,-0.646 -0.037,-0.201 -0.076,-0.397 -0.111,-0.595 -0.048,-0.216 -0.092,-0.433 -0.136,-0.646 -0.037,-0.188 -0.074,-0.376 -0.113,-0.562 -0.048,-0.212 -0.092,-0.424 -0.14,-0.633 -0.04,-0.182 -0.081,-0.361 -0.12,-0.54 -0.049,-0.21 -0.099,-0.415 -0.146,-0.614 -0.04,-0.177 -0.083,-0.352 -0.122,-0.526 -0.055,-0.207 -0.105,-0.406 -0.153,-0.611 -0.044,-0.151 -0.079,-0.313 -0.122,-0.461 -0.127,-0.496 -0.254,-0.968 -0.387,-1.436 -0.042,-0.136 -0.077,-0.267 -0.116,-0.397 -0.12,-0.411 -0.236,-0.813 -0.356,-1.202 -0.023,-0.087 -0.055,-0.175 -0.08,-0.267 -0.116,-0.366 -0.229,-0.725 -0.346,-1.07 -0.039,-0.126 -0.081,-0.258 -0.127,-0.382 -0.122,-0.383 -0.251,-0.754 -0.378,-1.105 -0.269,0.133 -0.539,0.269 -0.811,0.404 -0.02,0.006 -0.039,0.015 -0.057,0.028 0.044,-0.022 0.079,-0.046 0.123,-0.063 1.057,-0.533 2.11,-1.07 3.149,-1.617 l 3.973,1.185 65.549,19.452 -25.272,-53.146 c 66.139,-67.557 44.703,-165.003 44.703,-165.003 z"
       id="path17"
       inkscape:connector-curvature="0"
       style="fill:#ffffff" /></g></svg>