<?xml version="1.0" encoding="UTF-8" standalone="no"?>
<svg
   xmlns:dc="http://purl.org/dc/elements/1.1/"
   xmlns:cc="http://creativecommons.org/ns#"
   xmlns:rdf="http://www.w3.org/1999/02/22-rdf-syntax-ns#"
   xmlns:svg="http://www.w3.org/2000/svg"
   xmlns="http://www.w3.org/2000/svg"
   xmlns:sodipodi="http://sodipodi.sourceforge.net/DTD/sodipodi-0.dtd"
   xmlns:inkscape="http://www.inkscape.org/namespaces/inkscape"
   version="1.1"
   x="0px"
   y="0px"
   viewBox="0 0 30 30"
   id="svg2"
   inkscape:version="0.91 r13725"
   sodipodi:docname="manufacturing-apps.svg"
   width="30"
   height="30">
  <metadata
     id="metadata16">
    <rdf:RDF>
      <cc:Work
         rdf:about="">
        <dc:format>image/svg+xml</dc:format>
        <dc:type
           rdf:resource="http://purl.org/dc/dcmitype/StillImage" />
        <dc:title></dc:title>
      </cc:Work>
    </rdf:RDF>
  </metadata>
  <defs
     id="defs14" />
  <sodipodi:namedview
     pagecolor="#ffffff"
     bordercolor="#666666"
     borderopacity="1"
     objecttolerance="10"
     gridtolerance="10"
     guidetolerance="10"
     inkscape:pageopacity="0"
     inkscape:pageshadow="2"
     inkscape:window-width="1920"
     inkscape:window-height="1016"
     id="namedview12"
     showgrid="false"
     inkscape:zoom="10.680141"
     inkscape:cx="25.353964"
     inkscape:cy="24.583995"
     inkscape:window-x="0"
     inkscape:window-y="27"
     inkscape:window-maximized="1"
     inkscape:current-layer="svg2" />
  <g
     transform="matrix(0.63710499,0,0,0.63710499,-0.32237483,-0.32619782)"
     id="g4">
    <path
       style="fill:#000000"
       inkscape:connector-curvature="0"
       d="m 12,18.7 c -3.2,0 -5.7,2.6 -5.7,5.7 0,3.2 2.6,5.7 5.7,5.7 3.1,0 5.7,-2.6 5.7,-5.7 0,-3.1 -2.5,-5.7 -5.7,-5.7 z m 0,8.1 c -1.3,0 -2.3,-1 -2.3,-2.3 0,-1.3 1,-2.3 2.3,-2.3 1.3,0 2.3,1 2.3,2.3 0,1.2 -1.1,2.3 -2.3,2.3 z"
       id="path6" />
    <path
       style="fill:#000000"
       inkscape:connector-curvature="0"
       d="m 14,16.1 c 3,0.7 5.4,3 6.2,5.9 0.1,0.2 0.3,0.3 0.5,0.1 l 6.5,-6.5 c 0.1,-0.1 0.3,-0.1 0.4,0 l 0.9,0.9 c 0.1,0.1 0.3,0.1 0.4,0 l 2,-2 c 0.1,-0.1 0.1,-0.2 0,-0.3 l -0.4,-0.4 c -0.1,-0.1 -0.1,-0.2 0.1,-0.3 l 2.1,-0.9 c 0.3,-0.1 0.6,-0.4 0.7,-0.7 l 2.1,-6 C 35.8,5.2 35.3,4.3 34.5,4.2 33.9,4.1 33.3,4.5 33.1,5.1 l -1.9,5.3 c 0,0.1 -0.1,0.1 -0.2,0.2 l -2.5,1.1 c -0.1,0 -0.2,0 -0.3,-0.1 L 24.4,7.8 C 24.3,7.7 24.3,7.6 24.3,7.5 L 25.5,5 c 0,-0.1 0.1,-0.1 0.2,-0.2 L 30.9,3 c 0.6,-0.2 1,-0.8 0.9,-1.4 -0.1,-0.8 -1,-1.3 -1.7,-1 l -6,2.1 C 23.8,2.8 23.5,3.1 23.4,3.4 L 22.5,5.5 C 22.4,5.6 22.3,5.6 22.2,5.6 L 21.8,5.2 c -0.1,-0.1 -0.2,-0.1 -0.3,0 l -2,2 c -0.1,0.1 -0.1,0.3 0,0.4 l 1,1 c 0.1,0.1 0.1,0.3 0,0.4 l -6.7,6.7 c -0.1,0.1 -0.1,0.4 0.2,0.4 z"
       id="path8" />
    <path
       style="fill:#000000"
       inkscape:connector-curvature="0"
       d="M 34.3,40.8 20.4,27.2 c -0.1,-0.1 -0.2,-0.1 -0.3,0.1 -1,3 -3.7,5.3 -6.9,5.7 -0.1,0 -0.2,0.2 -0.1,0.3 l 7.4,7.3 c 0.1,0.1 0,0.3 -0.1,0.3 l -3.3,0 c -0.1,0 -0.2,0.1 -0.2,0.2 l 0,6.3 c 0,0.1 0.1,0.2 0.2,0.2 l 24.5,0 c 0.1,0 0.2,-0.1 0.2,-0.2 l 0,-6.4 c 0,-0.1 -0.1,-0.2 -0.2,-0.2 l -7.2,0 c -0.1,0 -0.1,0 -0.1,0 z"
       id="path10" />
  </g>
</svg>
