<?xml version="1.0" encoding="UTF-8" standalone="no"?>
<svg
   xmlns:dc="http://purl.org/dc/elements/1.1/"
   xmlns:cc="http://creativecommons.org/ns#"
   xmlns:rdf="http://www.w3.org/1999/02/22-rdf-syntax-ns#"
   xmlns:svg="http://www.w3.org/2000/svg"
   xmlns="http://www.w3.org/2000/svg"
   xmlns:sodipodi="http://sodipodi.sourceforge.net/DTD/sodipodi-0.dtd"
   xmlns:inkscape="http://www.inkscape.org/namespaces/inkscape"
   version="1.0"
   x="0px"
   y="0px"
   viewBox="0 0 32 31.999999"
   enable-background="new 0 0 100 76.434"
   xml:space="preserve"
   id="svg2"
   inkscape:version="0.91 r13725"
   sodipodi:docname="profile.svg"
   width="32"
   height="32"><metadata
     id="metadata14"><rdf:RDF><cc:Work
         rdf:about=""><dc:format>image/svg+xml</dc:format><dc:type
           rdf:resource="http://purl.org/dc/dcmitype/StillImage" /><dc:title></dc:title></cc:Work></rdf:RDF></metadata><defs
     id="defs12" /><sodipodi:namedview
     pagecolor="#ffffff"
     bordercolor="#666666"
     borderopacity="1"
     objecttolerance="10"
     gridtolerance="10"
     guidetolerance="10"
     inkscape:pageopacity="0"
     inkscape:pageshadow="2"
     inkscape:window-width="1920"
     inkscape:window-height="1016"
     id="namedview10"
     showgrid="false"
     inkscape:zoom="19.760839"
     inkscape:cx="20.311129"
     inkscape:cy="15.140105"
     inkscape:window-x="0"
     inkscape:window-y="27"
     inkscape:window-maximized="1"
     inkscape:current-layer="svg2" /><path
     d="m 31.54368,29.29792 c -0.67712,-3.49408 -9.99552,-3.12256 -12.24128,-5.8592 -0.4736,-0.5776 -0.4736,-0.5776 -0.15616,-2.72224 0.54208,-2.40064 1.03328,-0.91072 1.80832,-5.69888 C 21.60544,10.99648 20.21664,7.54112 16,7.54112 c -4.21664,0 -5.60544,3.45536 -4.95456,7.47648 0.77504,4.78816 1.26592,3.29824 1.80832,5.69888 0.31744,2.14464 0.31744,2.14464 -0.15616,2.72224 C 10.45184,26.17536 1.13344,25.80384 0.45632,29.29792 0.376,29.71136 0,32 0,32 l 32,0 c 0,0 -0.376,-2.28864 -0.45632,-2.70208 z"
     id="path4"
     inkscape:connector-curvature="0"
     style="fill:#ffffff" /></svg>