<?xml version="1.0" encoding="UTF-8" standalone="no"?>
<svg
   xmlns:dc="http://purl.org/dc/elements/1.1/"
   xmlns:cc="http://creativecommons.org/ns#"
   xmlns:rdf="http://www.w3.org/1999/02/22-rdf-syntax-ns#"
   xmlns:svg="http://www.w3.org/2000/svg"
   xmlns="http://www.w3.org/2000/svg"
   xmlns:sodipodi="http://sodipodi.sourceforge.net/DTD/sodipodi-0.dtd"
   xmlns:inkscape="http://www.inkscape.org/namespaces/inkscape"
   version="1.1"
   x="0px"
   y="0px"
   viewBox="0 0 30 30"
   id="svg2"
   inkscape:version="0.91 r13725"
   sodipodi:docname="srm-apps.svg"
   width="30"
   height="30">
  <metadata
     id="metadata16">
    <rdf:RDF>
      <cc:Work
         rdf:about="">
        <dc:format>image/svg+xml</dc:format>
        <dc:type
           rdf:resource="http://purl.org/dc/dcmitype/StillImage" />
        <dc:title></dc:title>
      </cc:Work>
    </rdf:RDF>
  </metadata>
  <defs
     id="defs14" />
  <sodipodi:namedview
     pagecolor="#ffffff"
     bordercolor="#666666"
     borderopacity="1"
     objecttolerance="10"
     gridtolerance="10"
     guidetolerance="10"
     inkscape:pageopacity="0"
     inkscape:pageshadow="2"
     inkscape:window-width="1920"
     inkscape:window-height="1016"
     id="namedview12"
     showgrid="false"
     inkscape:zoom="10.680141"
     inkscape:cx="25.353964"
     inkscape:cy="24.583995"
     inkscape:window-x="0"
     inkscape:window-y="27"
     inkscape:window-maximized="1"
     inkscape:current-layer="svg2" />
  <g
     transform="matrix(0.65671387,0,0,0.65671387,3.2704298e-4,-3.2872018e-6)"
     id="g4">
    <g
       id="g6">
      <path
         inkscape:connector-curvature="0"
         d="m 32.102,19.679 c 1.211,-0.259 2.328,-1.26 2.51,-3.48 0.15,-1.817 -0.316,-2.753 -1.004,-3.23 C 35.518,5.184 30.25,3.66 30.25,3.66 c 0,0 -3.937,-6.679 -11.618,-1.992 -0.977,0.596 -2.496,1.738 -3.401,2.917 -1.453,1.546 -2.442,4.059 -2.597,8.129 -0.938,0.358 -1.675,1.264 -1.492,3.484 0.192,2.321 1.403,3.309 2.677,3.511 1.72,4.189 5.116,7.641 9.135,7.641 4.028,0 7.431,-3.468 9.148,-7.671 z m -9.148,5.718 c -4.647,0 -8.389,-6.31 -8.389,-11.535 0,-0.716 0.023,-1.38 0.067,-1.996 6.797,0.297 10.817,-2.428 13.005,-4.792 2.075,2.068 3.153,4.68 3.704,6.619 0,0.056 10e-4,0.111 10e-4,0.168 0.001,5.226 -3.74,11.536 -8.388,11.536 z"
         id="path8" />
      <path
         inkscape:connector-curvature="0"
         d="M 20.292,33.297 20.83,31.07 c 0.062,-0.257 0.195,-0.477 0.375,-0.646 -0.055,-0.039 -0.109,-0.08 -0.162,-0.123 l -4.806,-3.979 -2.925,0.684 C 8.359,28.171 4.869,32.354 4.869,37.152 l 0,6.3 c 0,1.24 1.103,2.229 2.423,2.229 l 12.381,0 1.888,-10.762 c -0.848,-0.011 -1.469,-0.794 -1.269,-1.622 z"
         id="path10" />
      <path
         inkscape:connector-curvature="0"
         d="m 32.42,27.006 -2.885,-0.684 -4.801,3.979 c -0.053,0.043 -0.105,0.084 -0.16,0.123 0.181,0.169 0.314,0.389 0.377,0.646 l 0.537,2.227 c 0.201,0.827 -0.42,1.611 -1.269,1.623 l 1.888,10.762 12.381,0 c 1.32,0 2.324,-0.988 2.324,-2.229 l 0,-6.3 C 40.814,32.354 37.373,28.171 32.42,27.006 Z"
         id="path12" />
    </g>
  </g>
</svg>
